# xmcd CD database file
#
# Track frame offsets:
#	150
#	20393
#	42300
#	57290
#	75814
#	101747
#	112619
#	130294
#	149248
#	161881
#	181074
#	194341
#	214527
#
# Disc length: 3076 seconds
#
# Revision: 0
# Processed by: cddbd v1.5.2PL0 Copyright (c) Steve Scherf et al.
# Submitted via: CDex 1.51
#
DISCID=ac0c020d
DTITLE=Dan Siegel Project - Fables
DYEAR=2008
DGENRE=New Age
TTITLE0=Dark Star
TTITLE1=Concrete Jungle
TTITLE2=Fugitives
TTITLE3=A Day In The Country
TTITLE4=Celestial Body
TTITLE5=Behind The Shadow
TTITLE6=Before You Wake
TTITLE7=The Last Waltz
TTITLE8=Peace Of Mind
TTITLE9=Where Are You Now
TTITLE10=Solitary
TTITLE11=Little Creek
TTITLE12=Star Light
EXTD=YEAR: 2008
EXTT0=
EXTT1=
EXTT2=
EXTT3=
EXTT4=
EXTT5=
EXTT6=
EXTT7=
EXTT8=
EXTT9=
EXTT10=
EXTT11=
EXTT12=
PLAYORDER=
